{
    "asset" : {
        "generator" : "Khronos glTF Blender I/O v1.7.33",
        "version" : "2.0"
    },
    "scene" : 0,
    "scenes" : [
        {
            "extras" : {
                "ats_settings" : {
                    "num_tiles" : [
                        10,
                        6
                    ],
                    "threads_error" : 0,
                    "prev_engine" : "CYCLES",
                    "prev_device" : "GPU",
                    "prev_border" : 0,
                    "prev_threads" : 1,
                    "prev_choice" : "256",
                    "prev_res" : [
                        2560,
                        1440
                    ],
                    "prev_border_res" : [
                        0.0,
                        0.0,
                        1.0,
                        1.0
                    ],
                    "prev_actual_tile_size" : [
                        256,
                        240
                    ],
                    "first_run" : 0
                },
                "previews_dir" : "/home/ryanking/Desktop/Textures/HDRI Haven/1K/",
                "previews_list" : [
                    "fish_hoek_beach_1k.hdr",
                    "shanghai_bund_1k.hdr",
                    "snowy_forest_path_02_1k.hdr",
                    "delta_2_1k.hdr",
                    "kiara_7_late-afternoon_1k.hdr",
                    "cave_wall_1k.hdr",
                    "noon_grass_1k.hdr",
                    "whipple_creek_regional_park_04_1k.hdr",
                    "portland_landing_pad_1k.exr",
                    "cloud_layers_1k.hdr",
                    "snowy_park_01_1k.hdr",
                    "simons_town_rocks_1k.hdr",
                    "studio_small_06_1k.hdr",
                    "whipple_creek_gazebo_1k.exr",
                    "balcony_1k.hdr",
                    "spiaggia_di_mondello_1k.hdr",
                    "machine_shop_02_1k.hdr",
                    "satara_night_1k.hdr",
                    "kiara_interior_1k.hdr",
                    "satara_night_no_lamps_1k.hdr",
                    "pond_bridge_night_1k.hdr",
                    "winter_river_1k.hdr",
                    "cape_hill_1k.hdr",
                    "blue_grotto_1k.hdr",
                    "cayley_interior_1k.hdr",
                    "derelict_overpass_1k.hdr",
                    "lenong_3_1k.hdr",
                    "spruit_sunrise_1k.hdr",
                    "pillars_1k.hdr",
                    "lythwood_room_1k.hdr"
                ],
                "sub_dirs" : 0,
                "recursive_search" : 0,
                "prev" : 0,
                "atomic" : {},
                "screencast_keys_mouse" : 3,
                "screencast_keys_pos_y" : 1,
                "screencast_keys_pos_x" : 79,
                "screencast_keys_box_draw" : 0,
                "screencast_keys_show_operator" : 1,
                "screencast_keys_timer_show" : 0,
                "screencast_keys_mouse_position" : 0
            },
            "name" : "Scene",
            "nodes" : [
                9
            ]
        }
    ],
    "nodes" : [
        {
            "name" : "Foot 3",
            "rotation" : [
                -0.0189351923763752,
                0.0007845843210816383,
                0.018299097195267677,
                0.9996530413627625
            ],
            "scale" : [
                0.9999998807907104,
                0.9999999403953552,
                0.9999999403953552
            ],
            "translation" : [
                1.1400892452329003e-09,
                0.1965288519859314,
                3.593192445805471e-07
            ]
        },
        {
            "children" : [
                0
            ],
            "name" : "Foot 2",
            "rotation" : [
                0.4172235429286957,
                -0.009390479885041714,
                -0.0026526267174631357,
                0.9087515473365784
            ],
            "scale" : [
                0.9999999403953552,
                1.0000001192092896,
                0.9999999403953552
            ],
            "translation" : [
                1.0647637438410129e-08,
                0.24199090898036957,
                -7.080664232717027e-08
            ]
        },
        {
            "children" : [
                1
            ],
            "name" : "Foot 1",
            "rotation" : [
                0.3607921898365021,
                -0.007353292778134346,
                0.011153647676110268,
                0.9325505495071411
            ],
            "scale" : [
                0.9999998807907104,
                0.9999998211860657,
                1
            ],
            "translation" : [
                -2.7942547831116826e-08,
                1.153357982635498,
                8.619410607479949e-08
            ]
        },
        {
            "children" : [
                2
            ],
            "name" : "Lower Leg",
            "rotation" : [
                -0.05004126951098442,
                0.0008134067174978554,
                -0.01111979503184557,
                0.9986850023269653
            ],
            "scale" : [
                1.000000238418579,
                1.0000001192092896,
                1.0000003576278687
            ],
            "translation" : [
                -2.279869271148982e-08,
                1.0216089487075806,
                1.585304865159287e-08
            ]
        },
        {
            "children" : [
                3
            ],
            "name" : "Upper Leg",
            "rotation" : [
                0.005608368199318647,
                -0.014144370332360268,
                -0.4849851727485657,
                0.8743900060653687
            ],
            "scale" : [
                0.999999463558197,
                1.0000001192092896,
                1
            ],
            "translation" : [
                -3.5900786787834704e-09,
                0.40361565351486206,
                -8.864877582004382e-11
            ]
        },
        {
            "children" : [
                4
            ],
            "name" : "Hips",
            "rotation" : [
                -2.822614248998434e-07,
                1.1730350024663494e-07,
                -0.8612843155860901,
                0.5081234574317932
            ],
            "scale" : [
                1.0000001192092896,
                1.0000003576278687,
                1.0000001192092896
            ],
            "translation" : [
                -0.1482863426208496,
                0.24934586882591248,
                3.350184130113121e-08
            ]
        },
        {
            "name" : "Ankle",
            "rotation" : [
                -0.010568494908511639,
                -0.3251016438007355,
                -0.9451785683631897,
                0.028894780203700066
            ],
            "scale" : [
                0.9999999403953552,
                1.0000004768371582,
                1.000000238418579
            ],
            "translation" : [
                0.29319629073143005,
                -2.1152429580688477,
                -0.06372517347335815
            ]
        },
        {
            "name" : "Knee",
            "rotation" : [
                0.01851779595017433,
                -0.7068642377853394,
                -0.7068642973899841,
                0.01851779595017433
            ],
            "translation" : [
                0.2584744691848755,
                -0.9657706022262573,
                0.601177990436554
            ]
        },
        {
            "extras" : {
                "ant_landscape" : {}
            },
            "mesh" : 0,
            "name" : "Basic Character",
            "skin" : 0
        },
        {
            "children" : [
                8,
                5,
                6,
                7
            ],
            "extras" : {
                "ant_landscape" : {}
            },
            "name" : "Armature"
        }
    ],
    "meshes" : [
        {
            "name" : "Sphere",
            "primitives" : [
                {
                    "attributes" : {
                        "POSITION" : 0,
                        "NORMAL" : 1,
                        "TANGENT" : 2,
                        "TEXCOORD_0" : 3,
                        "JOINTS_0" : 4,
                        "WEIGHTS_0" : 5
                    },
                    "indices" : 6
                }
            ]
        }
    ],
    "skins" : [
        {
            "inverseBindMatrices" : 7,
            "joints" : [
                5,
                4,
                3,
                2,
                1,
                0,
                6,
                7
            ],
            "name" : "Armature"
        }
    ],
    "accessors" : [
        {
            "bufferView" : 0,
            "componentType" : 5126,
            "count" : 2906,
            "max" : [
                0.49320536851882935,
                0.3646009862422943,
                0.5748081803321838
            ],
            "min" : [
                0,
                -2.415682077407837,
                -0.33662155270576477
            ],
            "type" : "VEC3"
        },
        {
            "bufferView" : 1,
            "componentType" : 5126,
            "count" : 2906,
            "type" : "VEC3"
        },
        {
            "bufferView" : 2,
            "componentType" : 5126,
            "count" : 2906,
            "type" : "VEC4"
        },
        {
            "bufferView" : 3,
            "componentType" : 5126,
            "count" : 2906,
            "type" : "VEC2"
        },
        {
            "bufferView" : 4,
            "componentType" : 5121,
            "count" : 2906,
            "type" : "VEC4"
        },
        {
            "bufferView" : 5,
            "componentType" : 5126,
            "count" : 2906,
            "type" : "VEC4"
        },
        {
            "bufferView" : 6,
            "componentType" : 5123,
            "count" : 10608,
            "type" : "SCALAR"
        },
        {
            "bufferView" : 7,
            "componentType" : 5126,
            "count" : 8,
            "type" : "MAT4"
        }
    ],
    "bufferViews" : [
        {
            "buffer" : 0,
            "byteLength" : 34872,
            "byteOffset" : 0
        },
        {
            "buffer" : 0,
            "byteLength" : 34872,
            "byteOffset" : 34872
        },
        {
            "buffer" : 0,
            "byteLength" : 46496,
            "byteOffset" : 69744
        },
        {
            "buffer" : 0,
            "byteLength" : 23248,
            "byteOffset" : 116240
        },
        {
            "buffer" : 0,
            "byteLength" : 11624,
            "byteOffset" : 139488
        },
        {
            "buffer" : 0,
            "byteLength" : 46496,
            "byteOffset" : 151112
        },
        {
            "buffer" : 0,
            "byteLength" : 21216,
            "byteOffset" : 197608
        },
        {
            "buffer" : 0,
            "byteLength" : 512,
            "byteOffset" : 218824
        }
    ],
    "buffers" : [
        {
            "byteLength" : 219336,
            "uri" : "Leg Rigging Finished-0587a40fa131d27e15b62db6123e35b6.bin"
        }
    ]
}
